<svg version="1.0" xmlns="http://www.w3.org/2000/svg"
 width="401.000000pt" height="253.000000pt" viewBox="0 0 401.000000 253.000000"
 preserveAspectRatio="xMidYMid meet">

<g transform="translate(0.000000,253.000000) scale(0.100000,-0.100000)"
fill="#000000" stroke="none">
<path d="M3075 2475 c-102 -88 -282 -151 -495 -173 -288 -30 -488 -189 -539
-430 -7 -36 -11 -263 -10 -720 l0 -667 28 80 c51 147 116 252 211 338 132 119
250 157 500 160 141 2 175 6 231 25 119 41 239 146 239 210 0 15 -25 279 -55
587 -30 308 -55 575 -55 593 0 17 -3 32 -7 32 -5 -1 -26 -16 -48 -35z"/>
<path d="M3329 2232 c-19 -16 -51 -38 -72 -51 -37 -22 -37 -24 -32 -69 4 -26
26 -247 50 -492 l43 -445 -37 -45 c-47 -56 -127 -113 -200 -142 -53 -21 -71
-23 -301 -23 -225 -1 -250 -3 -310 -23 -174 -58 -313 -208 -395 -427 -33 -87
-32 -91 11 -21 53 88 99 141 173 196 170 129 406 161 704 96 238 -52 421 -20
530 93 l36 36 -78 667 c-43 367 -80 670 -82 673 -3 2 -21 -8 -40 -23z"/>
<path d="M1475 2014 c-63 -10 -143 -38 -246 -84 -178 -82 -325 -110 -569 -110
l-148 0 -6 -27 c-3 -16 -53 -325 -111 -687 -73 -456 -102 -662 -94 -666 21
-14 202 -19 307 -9 187 17 315 54 502 142 234 112 432 110 626 -4 58 -33 204
-169 237 -219 15 -23 16 26 16 697 l1 721 -39 50 c-65 81 -148 142 -239 173
-57 20 -180 31 -237 23z"/>
<path d="M3492 1910 c-19 -8 -22 -15 -18 -42 3 -18 33 -256 66 -528 33 -272
63 -509 65 -527 5 -29 2 -34 -42 -60 -26 -15 -83 -41 -128 -57 -69 -25 -98
-30 -210 -34 -128 -4 -134 -3 -300 39 -155 40 -180 43 -290 43 -104 0 -131 -4
-200 -28 -109 -38 -181 -83 -258 -165 -59 -62 -146 -195 -135 -206 2 -3 21 18
42 45 47 62 142 138 222 179 100 50 171 64 309 58 130 -5 189 -19 385 -95 235
-91 429 -128 615 -119 61 3 117 8 126 12 14 5 14 15 3 88 -142 948 -205 1366
-209 1385 -6 24 -9 25 -43 12z"/>
<path d="M331 1693 c-11 -49 -197 -920 -271 -1273 -23 -107 -43 -203 -46 -212
-5 -17 40 -18 848 -18 l854 0 12 -34 c19 -51 85 -112 145 -133 77 -27 206 -24
275 6 54 24 152 119 152 147 0 12 123 14 856 14 810 0 855 1 850 18 -3 9 -23
105 -46 212 -74 353 -260 1224 -271 1273 -10 45 -13 47 -45 47 -19 0 -34 -2
-34 -4 0 -2 52 -318 115 -703 63 -384 113 -704 110 -712 -8 -21 -361 -9 -483
18 -148 32 -287 78 -423 142 -172 81 -264 103 -394 96 -119 -7 -211 -35 -308
-96 -67 -43 -180 -154 -199 -197 -11 -23 -28 -33 -28 -16 0 5 -25 36 -56 71
-173 191 -425 279 -643 225 -36 -9 -127 -45 -201 -79 -146 -68 -283 -114 -432
-146 -123 -27 -475 -39 -483 -18 -3 8 46 327 110 708 63 382 115 698 115 703
0 4 -15 8 -34 8 -32 0 -35 -2 -45 -47z"/>
</g>
</svg>
